<?xml version="1.0" encoding="UTF-8" standalone="no"?>
<svg 
    xmlns="http://www.w3.org/2000/svg" 
    version="1.1" 
    class="css-1j8o68f"
    id="svg23"
    xmlns:xlink="http://www.w3.org/1999/xlink" 
    xmlns:svgjs="http://svgjs.dev/svgjs" 
    width="140"
    height="140" 
    viewBox="110">
<g 
transform="matrix(1,0,0,1,0.6682434902322143,0.43521515102963804)">
<svg 
viewBox="0 0 230 247" 
data-background-color="#ffffff"
 preserveAspectRatio="xMidYMid meet" 
 height="173"
  width="100" 
  xmlns="http://www.w3.org/2000/svg" 
  xmlns:xlink="http://www.w3.org/1999/xlink">
  <g 
  id="tight-bounds" 
  transform="matrix(1,0,0,1,-0.15369600275340645,-0.09997365579206985)">
  <svg 
  viewBox="0 0 230.30738429888405 247.2"
   height="247.2" 
   width="230.30738429888405">
   <g>
   <svg 
   viewBox="0 0 230.30738429888405 247.2" 
   height="247.2" 
   width="230.30738429888405">
   <g>
   <svg 
   viewBox="0 0 230.30738429888405 247.2" 
   height="247.2" 
   width="230.30738429888405">
   <g 
   id="textblocktransform">
   <svg 
   viewBox="0 0 230.30738429888405 247.2"
   height="247.2" 
   width="230.30738429888405" 
   id="textblock"><g>
   <svg 
   viewBox="0 0 230.30738429888405 247.2" 
   height="247.2" 
   width="230.30738429888405">
   <path 
   d="M229.768 53.02C228.685 27.36 225.6 20.227 225.6 20.227 216.126-6.202 204.303-0.506 193.681 3.292 174.928 3.446 156.251 9.091 137.542 12.119 98.271 12.581 58.665 4.986 19.59 23.717 15.919 29.464-3.808 24.846 0.653 56.304 1.822 69.39 6.088 83.913 5.958 95.922 6.543 98.026 7.355 93.202 7.701 96.23 8.914 104.39 10.895 100.541 12.52 105.365 10.257 118.246 11.881 128.971 13.429 140.21 10.701 143.135 7.203 141.749 5.633 151.449 5.471 158.479 4.594 157.145 3.63 156.837 2.927 156.632 1.508 157.402 1.746 159.608 2.558 167.152-0.928 171.514 1.259 178.904-0.246 186.91 2.299 193.838 1.952 202.511 1.909 204.255 2.147 205.744 2.526 206.154 4.204 208.361 1.757 212.672 2.017 217.342 19.232 249.262 37.909 227.195 55.547 241.872 60.127 231.608 56.684 245.516 58.514 243.36 59.943 240.846 60.982 251.263 62.596 245.362 62.845 243.668 62.466 239.665 63.353 240.435 63.819 240.846 64.23 240.743 64.295 238.382 64.393 234.841 63.538 237.048 63.31 235.201 65.768 225.861 65.162 248.081 67.468 247.158 67.36 244.438 66.688 240.538 68.063 241.051 69.428 237.151 69.471 233.918 70.683 242.693 70.727 244.592 70.943 245.926 71.29 246.85 75.079 237.305 78.847 250.237 82.821 245.926 85.257 241.205 87.596 248.492 90.064 246.696 90.93 245.259 91.807 242.693 92.641 247.004 102.851 247.928 113.733 244.079 123.412 247.158 149.278 241.41 176.92 249.518 204.194 241.923 210.626 238.998 217.306 234.841 223.575 231.506 223.575 231.506 228.653 222.371 228.653 181.316S229.736 145.393 229.898 112.703C230.061 80.013 230.818 78.679 229.736 53.02Z" opacity="1" fill="#ed2647" data-fill-palette-color="tertiary"></path><g transform="matrix(1,0,0,1,55.76832,26.230666666666668)"><svg width="118.77074429888404" viewBox="4.849999904632568 -34.29999923706055 20.94999885559082 34.349998474121094" height="194.73866666666666" data-palette-color="#ffffff"><path d="M4.85 0.05L4.85-34.3 8.95-34.3 8.95-3.75 25.8-3.75 25.8 0.05 4.85 0.05Z" opacity="1" transform="matrix(1,0,0,1,0,0)" fill="#ffffff" class="undefined-text-0" data-fill-palette-color="quaternary" id="text-0"></path></svg></g></svg></g></svg></g></svg></g><g></g></svg></g><defs></defs></svg><rect width="230.30738429888405" height="247.2" fill="none" stroke="none" visibility="hidden"></rect></g></svg></g></svg>